<svg width="248" height="26" viewBox="0 0 248 26" fill="none" xmlns="http://www.w3.org/2000/svg">
<path d="M1.01597 25.576C1.01597 24.892 0.99797 23.986 0.96197 22.858C0.93797 21.718 0.90197 20.44 0.85397 19.024C0.80597 17.608 0.74597 16.12 0.67397 14.56C0.60197 13 0.52997 11.446 0.457969 9.898C0.38597 8.338 0.31397 6.856 0.24197 5.452C0.18197 4.036 0.11597 2.776 0.0439695 1.672C0.46397 1.588 0.94397 1.534 1.48397 1.51C2.02397 1.474 2.53397 1.456 3.01397 1.456C3.57797 1.456 4.10597 1.48 4.59797 1.528C5.10197 1.564 5.49197 1.606 5.76797 1.654C5.77997 1.966 5.79797 2.47 5.82197 3.166C5.84597 3.85 5.87597 4.642 5.91197 5.542C5.94797 6.442 5.98397 7.36 6.01997 8.296C6.06797 9.232 6.10997 10.096 6.14597 10.888C6.61397 10.48 7.12397 9.952 7.67597 9.304C8.23997 8.644 8.82197 7.894 9.42197 7.054C10.034 6.214 10.634 5.314 11.222 4.354C11.81 3.394 12.368 2.398 12.896 1.366C13.832 2.086 14.756 2.722 15.668 3.274C16.592 3.814 17.246 4.186 17.63 4.39C17.486 4.726 17.204 5.218 16.784 5.866C16.364 6.514 15.854 7.234 15.254 8.026C14.666 8.818 14.018 9.61 13.31 10.402C12.602 11.194 11.888 11.896 11.168 12.508C11.756 13.18 12.356 13.918 12.968 14.722C13.58 15.514 14.162 16.318 14.714 17.134C15.278 17.938 15.794 18.706 16.262 19.438C16.73 20.17 17.12 20.812 17.432 21.364C17.756 21.916 17.972 22.324 18.08 22.588C17.78 22.792 17.33 23.056 16.73 23.38C16.13 23.704 15.488 24.022 14.804 24.334C14.132 24.646 13.526 24.886 12.986 25.054C12.866 24.754 12.662 24.328 12.374 23.776C12.086 23.212 11.75 22.582 11.366 21.886C10.982 21.178 10.568 20.458 10.124 19.726C9.69197 18.994 9.25997 18.298 8.82797 17.638C8.39597 16.978 7.99397 16.42 7.62197 15.964C7.42997 16.12 7.23797 16.258 7.04597 16.378C6.85397 16.486 6.67397 16.588 6.50597 16.684C6.56597 17.416 6.62597 18.226 6.68597 19.114C6.74597 19.99 6.79997 20.842 6.84797 21.67C6.89597 22.498 6.93197 23.212 6.95597 23.812C6.99197 24.412 7.00997 24.796 7.00997 24.964C6.79397 24.976 6.36197 25.012 5.71397 25.072C5.06597 25.132 4.32197 25.204 3.48197 25.288C2.65397 25.384 1.83197 25.48 1.01597 25.576ZM25.3621 25.27C25.0621 25.27 24.6481 25.258 24.1201 25.234C23.5921 25.222 23.0221 25.204 22.4101 25.18C21.8101 25.168 21.2221 25.15 20.6461 25.126C20.0821 25.102 19.6141 25.078 19.2421 25.054C19.3741 24.31 19.5541 23.362 19.7821 22.21C20.0221 21.058 20.2981 19.78 20.6101 18.376C20.9221 16.972 21.2521 15.508 21.6001 13.984C21.9481 12.448 22.3081 10.924 22.6801 9.412C23.0521 7.9 23.4121 6.466 23.7601 5.11C24.1081 3.754 24.4321 2.548 24.7321 1.492C25.9441 1.336 27.1381 1.21 28.3141 1.114C29.5021 1.006 30.6541 0.951998 31.7701 0.951998C32.4061 0.951998 33.0421 0.969999 33.6781 1.006C34.3141 1.042 34.9441 1.102 35.5681 1.186C35.7961 2.242 36.0301 3.454 36.2701 4.822C36.5101 6.19 36.7501 7.804 36.9901 9.664C37.2421 11.512 37.4881 13.69 37.7281 16.198C37.9801 18.694 38.2321 21.604 38.4841 24.928C38.0881 24.976 37.5241 25.03 36.7921 25.09C36.0601 25.15 35.2921 25.192 34.4881 25.216C33.6961 25.252 32.9881 25.27 32.3641 25.27C32.3401 24.922 32.3161 24.526 32.2921 24.082C32.2801 23.638 32.2621 23.164 32.2381 22.66C32.2141 22.156 32.1901 21.646 32.1661 21.13C32.1541 20.614 32.1421 20.116 32.1301 19.636C32.1181 19.156 32.1061 18.712 32.0941 18.304C31.7101 18.316 31.2961 18.334 30.8521 18.358C30.4081 18.37 29.9581 18.394 29.5021 18.43C29.0581 18.454 28.6381 18.484 28.2421 18.52C27.8461 18.544 27.4981 18.574 27.1981 18.61C26.8981 18.646 26.6821 18.676 26.5501 18.7C26.3701 19.516 26.2021 20.338 26.0461 21.166C25.8901 21.994 25.7521 22.768 25.6321 23.488C25.5121 24.196 25.4221 24.79 25.3621 25.27ZM27.2881 13.714C27.5641 13.666 27.9961 13.612 28.5841 13.552C29.1721 13.492 29.7841 13.444 30.4201 13.408C31.0561 13.372 31.5721 13.348 31.9681 13.336C31.9441 13.084 31.9141 12.61 31.8781 11.914C31.8541 11.206 31.8181 10.438 31.7701 9.61C31.7221 8.77 31.6741 8.002 31.6261 7.306C31.5901 6.598 31.5541 6.112 31.5181 5.848C31.3261 5.848 31.0381 5.86 30.6541 5.884C30.2701 5.908 29.8981 5.932 29.5381 5.956C29.1781 5.98 28.9261 6.004 28.7821 6.028C28.7101 6.376 28.6081 6.862 28.4761 7.486C28.3561 8.098 28.2241 8.782 28.0801 9.538C27.9361 10.294 27.7921 11.038 27.6481 11.77C27.5161 12.49 27.3961 13.138 27.2881 13.714ZM47.4518 25.324C46.9838 25.324 46.4258 25.318 45.7778 25.306C45.1418 25.294 44.4938 25.27 43.8338 25.234C43.1858 25.198 42.5978 25.15 42.0698 25.09C42.0458 24.31 42.0218 23.314 41.9978 22.102C41.9738 20.878 41.9498 19.576 41.9258 18.196C41.9138 16.816 41.9078 15.502 41.9078 14.254C41.9078 12.334 41.9198 10.282 41.9438 8.098C41.9798 5.914 42.0218 3.652 42.0698 1.312C42.2738 1.3 42.5978 1.294 43.0418 1.294C43.4858 1.282 43.9838 1.27 44.5358 1.258C45.0998 1.234 45.6398 1.222 46.1558 1.222C46.6838 1.21 47.1278 1.204 47.4878 1.204C47.5598 2.488 47.6198 3.916 47.6678 5.488C47.7158 7.048 47.7518 8.644 47.7758 10.276C47.7998 11.908 47.8118 13.474 47.8118 14.974C47.8118 15.718 47.8058 16.492 47.7938 17.296C47.7938 18.1 47.7878 18.898 47.7758 19.69C47.7638 20.482 47.7398 21.238 47.7038 21.958C47.6678 22.678 47.6318 23.332 47.5958 23.92C47.5598 24.496 47.5118 24.964 47.4518 25.324ZM62.034 25.918C59.526 25.918 57.474 25.378 55.878 24.298C54.294 23.218 53.124 21.748 52.368 19.888C51.624 18.028 51.252 15.934 51.252 13.606C51.252 11.206 51.672 9.076 52.512 7.216C53.364 5.356 54.588 3.898 56.184 2.842C57.792 1.774 59.742 1.24 62.034 1.24C63.942 1.24 65.58 1.558 66.948 2.194C68.316 2.83 69.432 3.712 70.296 4.84C71.172 5.968 71.814 7.276 72.222 8.764C72.63 10.252 72.834 11.86 72.834 13.588C72.834 15.208 72.624 16.756 72.204 18.232C71.796 19.708 71.154 21.022 70.278 22.174C69.414 23.326 68.298 24.238 66.93 24.91C65.574 25.582 63.942 25.918 62.034 25.918ZM62.088 20.158C63.312 20.158 64.332 19.822 65.148 19.15C65.976 18.478 66.594 17.602 67.002 16.522C67.41 15.43 67.614 14.266 67.614 13.03C67.614 12.118 67.524 11.242 67.344 10.402C67.164 9.55 66.876 8.794 66.48 8.134C66.084 7.474 65.55 6.952 64.878 6.568C64.206 6.184 63.378 5.992 62.394 5.992C61.278 5.992 60.318 6.328 59.514 7C58.71 7.672 58.086 8.578 57.642 9.718C57.21 10.846 56.994 12.112 56.994 13.516C56.994 14.764 57.156 15.892 57.48 16.9C57.816 17.896 58.356 18.688 59.1 19.276C59.856 19.864 60.852 20.158 62.088 20.158ZM94.0695 25.108L87.8955 24.82C87.8595 22.228 87.7995 19.624 87.7155 17.008C87.6315 14.38 87.5415 11.77 87.4455 9.178C87.3495 6.586 87.2415 4.042 87.1215 1.546C88.4295 1.474 89.7015 1.432 90.9375 1.42C92.1735 1.396 93.3375 1.39 94.4295 1.402C95.7975 1.402 97.0275 1.456 98.1195 1.564C99.2235 1.672 100.172 1.804 100.964 1.96C101.036 2.8 101.09 3.676 101.126 4.588C101.162 5.488 101.18 6.262 101.18 6.91C100.724 6.874 100.046 6.826 99.1455 6.766C98.2575 6.706 97.2495 6.652 96.1215 6.604C95.0055 6.544 93.8595 6.514 92.6835 6.514C92.7195 6.802 92.7495 7.168 92.7735 7.612C92.8095 8.044 92.8455 8.5 92.8815 8.98C92.9175 9.448 92.9415 9.886 92.9535 10.294C93.7815 10.294 94.6515 10.324 95.5635 10.384C96.4875 10.432 97.3215 10.498 98.0655 10.582C98.8215 10.666 99.3555 10.732 99.6675 10.78C99.6675 11.488 99.6555 12.232 99.6315 13.012C99.6195 13.78 99.5835 14.584 99.5235 15.424C99.0075 15.364 98.3955 15.31 97.6875 15.262C96.9795 15.202 96.2475 15.154 95.4915 15.118C94.7355 15.082 94.0275 15.064 93.3675 15.064C93.4635 16.048 93.5535 17.116 93.6375 18.268C93.7335 19.42 93.8175 20.584 93.8895 21.76C93.9615 22.924 94.0215 24.04 94.0695 25.108ZM107.276 25.27C106.976 25.27 106.562 25.258 106.034 25.234C105.506 25.222 104.936 25.204 104.324 25.18C103.724 25.168 103.136 25.15 102.56 25.126C101.996 25.102 101.528 25.078 101.156 25.054C101.288 24.31 101.468 23.362 101.696 22.21C101.936 21.058 102.212 19.78 102.524 18.376C102.836 16.972 103.166 15.508 103.514 13.984C103.862 12.448 104.222 10.924 104.594 9.412C104.966 7.9 105.326 6.466 105.674 5.11C106.022 3.754 106.346 2.548 106.646 1.492C107.858 1.336 109.052 1.21 110.228 1.114C111.416 1.006 112.568 0.951998 113.684 0.951998C114.32 0.951998 114.956 0.969999 115.592 1.006C116.228 1.042 116.858 1.102 117.482 1.186C117.71 2.242 117.944 3.454 118.184 4.822C118.424 6.19 118.664 7.804 118.904 9.664C119.156 11.512 119.402 13.69 119.642 16.198C119.894 18.694 120.146 21.604 120.398 24.928C120.002 24.976 119.438 25.03 118.706 25.09C117.974 25.15 117.206 25.192 116.402 25.216C115.61 25.252 114.902 25.27 114.278 25.27C114.254 24.922 114.23 24.526 114.206 24.082C114.194 23.638 114.176 23.164 114.152 22.66C114.128 22.156 114.104 21.646 114.08 21.13C114.068 20.614 114.056 20.116 114.044 19.636C114.032 19.156 114.02 18.712 114.008 18.304C113.624 18.316 113.21 18.334 112.766 18.358C112.322 18.37 111.872 18.394 111.416 18.43C110.972 18.454 110.552 18.484 110.156 18.52C109.76 18.544 109.412 18.574 109.112 18.61C108.812 18.646 108.596 18.676 108.464 18.7C108.284 19.516 108.116 20.338 107.96 21.166C107.804 21.994 107.666 22.768 107.546 23.488C107.426 24.196 107.336 24.79 107.276 25.27ZM109.202 13.714C109.478 13.666 109.91 13.612 110.498 13.552C111.086 13.492 111.698 13.444 112.334 13.408C112.97 13.372 113.486 13.348 113.882 13.336C113.858 13.084 113.828 12.61 113.792 11.914C113.768 11.206 113.732 10.438 113.684 9.61C113.636 8.77 113.588 8.002 113.54 7.306C113.504 6.598 113.468 6.112 113.432 5.848C113.24 5.848 112.952 5.86 112.568 5.884C112.184 5.908 111.812 5.932 111.452 5.956C111.092 5.98 110.84 6.004 110.696 6.028C110.624 6.376 110.522 6.862 110.39 7.486C110.27 8.098 110.138 8.782 109.994 9.538C109.85 10.294 109.706 11.038 109.562 11.77C109.43 12.49 109.31 13.138 109.202 13.714ZM133.956 25.864C131.604 25.864 129.594 25.366 127.926 24.37C126.27 23.374 125.004 21.946 124.128 20.086C123.252 18.214 122.814 15.976 122.814 13.372C122.814 10.936 123.21 8.782 124.002 6.91C124.806 5.038 125.976 3.574 127.512 2.518C129.048 1.45 130.92 0.915999 133.128 0.915999C134.328 0.915999 135.48 1.084 136.584 1.42C137.7 1.744 138.708 2.206 139.608 2.806C140.508 3.406 141.234 4.12 141.786 4.948C141.582 5.212 141.222 5.578 140.706 6.046C140.202 6.514 139.644 6.994 139.032 7.486C138.42 7.978 137.838 8.392 137.286 8.728C137.01 8.32 136.68 7.942 136.296 7.594C135.924 7.246 135.48 6.97 134.964 6.766C134.448 6.562 133.842 6.46 133.146 6.46C132.474 6.46 131.856 6.646 131.292 7.018C130.728 7.378 130.242 7.882 129.834 8.53C129.426 9.178 129.108 9.946 128.88 10.834C128.664 11.71 128.556 12.664 128.556 13.696C128.556 15.076 128.754 16.306 129.15 17.386C129.546 18.454 130.146 19.294 130.95 19.906C131.754 20.506 132.774 20.806 134.01 20.806C134.778 20.806 135.426 20.656 135.954 20.356C136.494 20.044 136.902 19.636 137.178 19.132C137.466 18.616 137.61 18.064 137.61 17.476C137.61 17.308 137.604 17.158 137.592 17.026C137.592 16.894 137.58 16.768 137.556 16.648C137.352 16.588 137.034 16.528 136.602 16.468C136.17 16.396 135.69 16.33 135.162 16.27C134.646 16.198 134.148 16.144 133.668 16.108C133.188 16.06 132.792 16.03 132.48 16.018C132.48 15.682 132.486 15.256 132.498 14.74C132.51 14.212 132.528 13.69 132.552 13.174C132.588 12.646 132.624 12.22 132.66 11.896C133.512 11.908 134.55 11.98 135.774 12.112C136.998 12.232 138.228 12.388 139.464 12.58C140.712 12.772 141.78 12.982 142.668 13.21C142.788 13.654 142.872 14.158 142.92 14.722C142.968 15.274 142.992 15.778 142.992 16.234C142.992 17.974 142.662 19.576 142.002 21.04C141.354 22.492 140.358 23.662 139.014 24.55C137.682 25.426 135.996 25.864 133.956 25.864ZM155.239 25.558C153.103 25.558 151.423 25.078 150.199 24.118C148.987 23.158 148.081 21.79 147.481 20.014C146.929 18.418 146.581 16.48 146.437 14.2C146.305 11.908 146.239 9.322 146.239 6.442C146.239 5.998 146.245 5.536 146.257 5.056C146.269 4.576 146.281 4.09 146.293 3.598C146.305 3.094 146.317 2.608 146.329 2.14C146.353 1.672 146.371 1.24 146.383 0.844C146.875 0.783998 147.373 0.741998 147.877 0.717998C148.381 0.681998 148.861 0.663998 149.317 0.663998C149.929 0.663998 150.535 0.681998 151.135 0.717998C151.735 0.753998 152.269 0.795999 152.737 0.844C152.665 1.744 152.599 2.722 152.539 3.778C152.479 4.834 152.431 5.914 152.395 7.018C152.371 8.11 152.359 9.172 152.359 10.204C152.359 11.404 152.395 12.472 152.467 13.408C152.539 14.332 152.653 15.124 152.809 15.784C153.037 16.768 153.379 17.494 153.835 17.962C154.291 18.43 154.879 18.664 155.599 18.664C156.391 18.664 157.009 18.394 157.453 17.854C157.909 17.314 158.227 16.552 158.407 15.568C158.587 14.584 158.677 13.438 158.677 12.13C158.677 11.65 158.665 11.032 158.641 10.276C158.629 9.508 158.611 8.68 158.587 7.792C158.563 6.892 158.533 6.004 158.497 5.128C158.461 4.252 158.419 3.46 158.371 2.752C158.323 2.032 158.275 1.474 158.227 1.078C158.707 1.078 159.259 1.102 159.883 1.15C160.519 1.186 161.143 1.228 161.755 1.276C162.379 1.324 162.919 1.378 163.375 1.438C163.831 1.498 164.125 1.546 164.257 1.582C164.365 2.218 164.449 2.914 164.509 3.67C164.569 4.414 164.617 5.188 164.653 5.992C164.689 6.796 164.707 7.6 164.707 8.404C164.707 10.792 164.581 13.024 164.329 15.1C164.089 17.176 163.633 19 162.961 20.572C162.289 22.132 161.329 23.356 160.081 24.244C158.833 25.12 157.219 25.558 155.239 25.558ZM174.659 25.108C173.927 25.12 173.153 25.102 172.337 25.054C171.533 25.018 170.789 24.97 170.105 24.91C169.421 24.85 168.893 24.796 168.521 24.748C168.521 24.628 168.521 24.298 168.521 23.758C168.521 23.218 168.521 22.528 168.521 21.688C168.521 20.848 168.521 19.918 168.521 18.898C168.521 17.866 168.521 16.798 168.521 15.694C168.533 14.59 168.539 13.51 168.539 12.454C168.539 11.146 168.533 9.85 168.521 8.566C168.509 7.27 168.491 6.07 168.467 4.966C168.443 3.85 168.407 2.926 168.359 2.194C168.599 2.194 168.965 2.206 169.457 2.23C169.949 2.254 170.489 2.284 171.077 2.32C171.677 2.356 172.259 2.404 172.823 2.464C173.387 2.512 173.867 2.566 174.263 2.626C175.043 3.754 175.793 4.906 176.513 6.082C177.245 7.246 177.935 8.422 178.583 9.61C179.243 10.786 179.861 11.962 180.437 13.138C181.025 14.314 181.571 15.472 182.075 16.612L181.337 2.518C181.697 2.518 182.135 2.536 182.651 2.572C183.179 2.608 183.719 2.65 184.271 2.698C184.835 2.746 185.351 2.806 185.819 2.878C186.299 2.95 186.659 3.022 186.899 3.094C186.935 3.61 186.971 4.204 187.007 4.876C187.055 5.536 187.091 6.25 187.115 7.018C187.139 7.774 187.163 8.56 187.187 9.376C187.211 10.18 187.229 10.99 187.241 11.806C187.253 12.61 187.259 13.384 187.259 14.128C187.259 15.34 187.241 16.54 187.205 17.728C187.181 18.904 187.139 20.002 187.079 21.022C187.031 22.03 186.977 22.882 186.917 23.578C186.857 24.262 186.791 24.718 186.719 24.946C186.383 24.958 186.023 24.97 185.639 24.982C185.267 24.982 184.889 24.982 184.505 24.982C183.941 24.982 183.389 24.97 182.849 24.946C182.321 24.922 181.877 24.88 181.517 24.82C181.397 24.604 181.193 24.238 180.905 23.722C180.629 23.194 180.287 22.558 179.879 21.814C179.471 21.058 179.027 20.236 178.547 19.348C178.067 18.46 177.575 17.554 177.071 16.63C176.567 15.694 176.069 14.782 175.577 13.894C175.085 13.006 174.635 12.19 174.227 11.446C174.263 11.782 174.299 12.292 174.335 12.976C174.371 13.66 174.401 14.452 174.425 15.352C174.461 16.252 174.491 17.188 174.515 18.16C174.539 19.12 174.563 20.062 174.587 20.986C174.611 21.898 174.629 22.72 174.641 23.452C174.653 24.172 174.659 24.724 174.659 25.108ZM192.447 25.576C192.375 25.012 192.291 24.202 192.195 23.146C192.111 22.078 192.009 20.86 191.889 19.492C191.769 18.112 191.649 16.672 191.529 15.172C191.409 13.66 191.289 12.166 191.169 10.69C191.049 9.214 190.941 7.852 190.845 6.604C190.761 5.344 190.683 4.276 190.611 3.4C190.551 2.512 190.509 1.918 190.485 1.618C190.977 1.558 191.607 1.492 192.375 1.42C193.143 1.348 193.965 1.288 194.841 1.24C195.717 1.18 196.539 1.15 197.307 1.15C199.515 1.15 201.387 1.396 202.923 1.888C204.459 2.368 205.695 3.118 206.631 4.138C207.567 5.146 208.245 6.43 208.665 7.99C209.085 9.55 209.295 11.392 209.295 13.516C209.295 15.976 208.965 17.992 208.305 19.564C207.657 21.124 206.643 22.342 205.263 23.218C203.895 24.082 202.149 24.682 200.025 25.018C197.913 25.366 195.387 25.552 192.447 25.576ZM197.829 19.618C199.257 19.57 200.379 19.324 201.195 18.88C202.023 18.436 202.605 17.8 202.941 16.972C203.289 16.132 203.463 15.112 203.463 13.912C203.463 12.568 203.295 11.302 202.959 10.114C202.635 8.926 202.089 7.966 201.321 7.234C200.565 6.502 199.533 6.136 198.225 6.136C198.009 6.136 197.775 6.136 197.523 6.136C197.283 6.136 197.067 6.148 196.875 6.172C196.971 7.48 197.067 8.926 197.163 10.51C197.271 12.082 197.385 13.66 197.505 15.244C197.625 16.816 197.733 18.274 197.829 19.618ZM225.698 25.234C224.522 25.162 223.358 25.09 222.206 25.018C221.054 24.958 219.884 24.91 218.696 24.874C217.736 24.826 216.758 24.778 215.762 24.73C214.766 24.67 213.782 24.616 212.81 24.568C212.726 22.552 212.666 20.596 212.63 18.7C212.606 16.792 212.594 15.004 212.594 13.336C212.594 10.66 212.618 8.386 212.666 6.514C212.714 4.642 212.762 3.298 212.81 2.482C215.078 2.062 217.178 1.756 219.11 1.564C221.042 1.36 222.656 1.234 223.952 1.186C225.26 1.138 226.076 1.114 226.4 1.114C226.4 1.894 226.376 2.662 226.328 3.418C226.28 4.162 226.22 4.948 226.148 5.776L218.444 6.406C218.432 6.562 218.42 6.808 218.408 7.144C218.396 7.468 218.384 7.828 218.372 8.224C218.372 8.608 218.372 8.968 218.372 9.304C218.372 9.64 218.372 9.886 218.372 10.042C218.648 10.042 219.002 10.042 219.434 10.042C219.878 10.03 220.358 10.018 220.874 10.006C221.402 9.994 221.93 9.982 222.458 9.97C222.986 9.958 223.478 9.952 223.934 9.952C224.402 9.94 224.798 9.928 225.122 9.916L225.05 14.848C224.894 14.848 224.588 14.842 224.132 14.83C223.676 14.806 223.148 14.782 222.548 14.758C221.96 14.734 221.366 14.716 220.766 14.704C220.166 14.68 219.638 14.662 219.182 14.65C218.726 14.638 218.414 14.638 218.246 14.65C218.234 14.77 218.222 14.974 218.21 15.262C218.21 15.538 218.204 15.856 218.192 16.216C218.192 16.564 218.192 16.93 218.192 17.314C218.192 17.686 218.186 18.034 218.174 18.358C218.174 18.67 218.174 18.922 218.174 19.114C218.33 19.114 218.75 19.114 219.434 19.114C220.118 19.102 220.82 19.096 221.54 19.096C222.14 19.096 222.74 19.108 223.34 19.132C223.94 19.156 224.498 19.186 225.014 19.222C225.53 19.246 225.95 19.27 226.274 19.294C226.274 19.774 226.25 20.326 226.202 20.95C226.154 21.562 226.1 22.168 226.04 22.768C225.992 23.368 225.932 23.896 225.86 24.352C225.8 24.796 225.746 25.09 225.698 25.234ZM238.299 25.288C237.399 25.288 236.481 25.18 235.545 24.964C234.621 24.748 233.721 24.43 232.845 24.01C231.981 23.59 231.189 23.074 230.469 22.462C229.749 21.838 229.143 21.124 228.651 20.32C228.723 20.2 228.915 19.996 229.227 19.708C229.539 19.408 229.899 19.084 230.307 18.736C230.715 18.376 231.117 18.046 231.513 17.746C231.921 17.446 232.257 17.23 232.521 17.098C232.905 17.542 233.313 17.986 233.745 18.43C234.189 18.874 234.657 19.276 235.149 19.636C235.653 19.984 236.193 20.266 236.769 20.482C237.345 20.698 237.957 20.806 238.605 20.806C239.349 20.806 239.937 20.668 240.369 20.392C240.813 20.116 241.131 19.768 241.323 19.348C241.515 18.916 241.611 18.478 241.611 18.034C241.611 17.674 241.521 17.332 241.341 17.008C241.161 16.684 240.891 16.378 240.531 16.09C240.171 15.79 239.721 15.502 239.181 15.226C238.653 14.938 238.029 14.668 237.309 14.416C235.869 13.864 234.567 13.282 233.403 12.67C232.239 12.046 231.309 11.296 230.613 10.42C229.929 9.544 229.587 8.446 229.587 7.126C229.587 5.722 229.977 4.546 230.757 3.598C231.537 2.65 232.569 1.936 233.853 1.456C235.137 0.963998 236.517 0.717998 237.993 0.717998C239.109 0.717998 240.189 0.843998 241.233 1.096C242.289 1.336 243.273 1.702 244.185 2.194C245.097 2.686 245.883 3.304 246.543 4.048C246.363 4.312 246.081 4.666 245.697 5.11C245.313 5.554 244.905 5.998 244.473 6.442C244.041 6.886 243.675 7.24 243.375 7.504C242.895 7.036 242.361 6.616 241.773 6.244C241.185 5.86 240.567 5.56 239.919 5.344C239.271 5.116 238.617 5.002 237.957 5.002C237.189 5.002 236.541 5.17 236.013 5.506C235.485 5.83 235.221 6.322 235.221 6.982C235.221 7.282 235.287 7.552 235.419 7.792C235.563 8.032 235.761 8.248 236.013 8.44C236.265 8.632 236.565 8.812 236.913 8.98C237.261 9.136 237.651 9.286 238.083 9.43C239.307 9.838 240.471 10.264 241.575 10.708C242.691 11.152 243.675 11.668 244.527 12.256C245.391 12.832 246.069 13.54 246.561 14.38C247.053 15.22 247.299 16.246 247.299 17.458C247.299 18.598 247.077 19.648 246.633 20.608C246.189 21.556 245.565 22.384 244.761 23.092C243.969 23.788 243.021 24.328 241.917 24.712C240.825 25.096 239.619 25.288 238.299 25.288Z" fill="#403C3C"/>
</svg>
