<svg width="221" height="23" viewBox="0 0 221 23" fill="none" xmlns="http://www.w3.org/2000/svg">
<path d="M1.79197 22.512C1.79197 21.904 1.77597 21.0987 1.74397 20.096C1.72264 19.0827 1.69064 17.9467 1.64797 16.688C1.6053 15.4293 1.55197 14.1067 1.48797 12.72C1.42397 11.3333 1.35997 9.952 1.29597 8.576C1.23197 7.18933 1.16797 5.872 1.10397 4.624C1.05064 3.36533 0.99197 2.24533 0.92797 1.264C1.3013 1.18933 1.72797 1.14133 2.20797 1.12C2.68797 1.088 3.1413 1.072 3.56797 1.072C4.0693 1.072 4.53864 1.09333 4.97597 1.136C5.42397 1.168 5.77064 1.20533 6.01597 1.248C6.02664 1.52533 6.04264 1.97333 6.06397 2.592C6.0853 3.2 6.11197 3.904 6.14397 4.704C6.17597 5.504 6.20797 6.32 6.23997 7.152C6.28264 7.984 6.31997 8.752 6.35197 9.456C6.76797 9.09333 7.2213 8.624 7.71197 8.048C8.2133 7.46133 8.73064 6.79467 9.26397 6.048C9.80797 5.30133 10.3413 4.50133 10.864 3.648C11.3866 2.79467 11.8826 1.90933 12.352 0.991999C13.184 1.632 14.0053 2.19733 14.816 2.688C15.6373 3.168 16.2186 3.49867 16.56 3.68C16.432 3.97867 16.1813 4.416 15.808 4.992C15.4346 5.568 14.9813 6.208 14.448 6.912C13.9253 7.616 13.3493 8.32 12.72 9.024C12.0906 9.728 11.456 10.352 10.816 10.896C11.3386 11.4933 11.872 12.1493 12.416 12.864C12.96 13.568 13.4773 14.2827 13.968 15.008C14.4693 15.7227 14.928 16.4053 15.344 17.056C15.76 17.7067 16.1066 18.2773 16.384 18.768C16.672 19.2587 16.864 19.6213 16.96 19.856C16.6933 20.0373 16.2933 20.272 15.76 20.56C15.2266 20.848 14.656 21.1307 14.048 21.408C13.4506 21.6853 12.912 21.8987 12.432 22.048C12.3253 21.7813 12.144 21.4027 11.888 20.912C11.632 20.4107 11.3333 19.8507 10.992 19.232C10.6506 18.6027 10.2826 17.9627 9.88797 17.312C9.50397 16.6613 9.11997 16.0427 8.73597 15.456C8.35197 14.8693 7.99464 14.3733 7.66397 13.968C7.4933 14.1067 7.32264 14.2293 7.15197 14.336C6.9813 14.432 6.8213 14.5227 6.67197 14.608C6.7253 15.2587 6.77864 15.9787 6.83197 16.768C6.8853 17.5467 6.9333 18.304 6.97597 19.04C7.01864 19.776 7.05064 20.4107 7.07197 20.944C7.10397 21.4773 7.11997 21.8187 7.11997 21.968C6.92797 21.9787 6.54397 22.0107 5.96797 22.064C5.39197 22.1173 4.73064 22.1813 3.98397 22.256C3.24797 22.3413 2.5173 22.4267 1.79197 22.512ZM23.433 22.24C23.1663 22.24 22.7983 22.2293 22.329 22.208C21.8596 22.1973 21.353 22.1813 20.809 22.16C20.2756 22.1493 19.753 22.1333 19.241 22.112C18.7396 22.0907 18.3236 22.0693 17.993 22.048C18.1103 21.3867 18.2703 20.544 18.473 19.52C18.6863 18.496 18.9316 17.36 19.209 16.112C19.4863 14.864 19.7796 13.5627 20.089 12.208C20.3983 10.8427 20.7183 9.488 21.049 8.144C21.3796 6.8 21.6996 5.52533 22.009 4.32C22.3183 3.11467 22.6063 2.04267 22.873 1.104C23.9503 0.965333 25.0116 0.853333 26.057 0.768C27.113 0.671999 28.137 0.623999 29.129 0.623999C29.6943 0.623999 30.2596 0.639999 30.825 0.671999C31.3903 0.703999 31.9503 0.757332 32.505 0.831999C32.7076 1.77067 32.9156 2.848 33.129 4.064C33.3423 5.28 33.5556 6.71467 33.769 8.368C33.993 10.0107 34.2116 11.9467 34.425 14.176C34.649 16.3947 34.873 18.9813 35.097 21.936C34.745 21.9787 34.2436 22.0267 33.593 22.08C32.9423 22.1333 32.2596 22.1707 31.545 22.192C30.841 22.224 30.2116 22.24 29.657 22.24C29.6356 21.9307 29.6143 21.5787 29.593 21.184C29.5823 20.7893 29.5663 20.368 29.545 19.92C29.5236 19.472 29.5023 19.0187 29.481 18.56C29.4703 18.1013 29.4596 17.6587 29.449 17.232C29.4383 16.8053 29.4276 16.4107 29.417 16.048C29.0756 16.0587 28.7076 16.0747 28.313 16.096C27.9183 16.1067 27.5183 16.128 27.113 16.16C26.7183 16.1813 26.345 16.208 25.993 16.24C25.641 16.2613 25.3316 16.288 25.065 16.32C24.7983 16.352 24.6063 16.3787 24.489 16.4C24.329 17.1253 24.1796 17.856 24.041 18.592C23.9023 19.328 23.7796 20.016 23.673 20.656C23.5663 21.2853 23.4863 21.8133 23.433 22.24ZM25.145 11.968C25.3903 11.9253 25.7743 11.8773 26.297 11.824C26.8196 11.7707 27.3636 11.728 27.929 11.696C28.4943 11.664 28.953 11.6427 29.305 11.632C29.2836 11.408 29.257 10.9867 29.225 10.368C29.2036 9.73867 29.1716 9.056 29.129 8.32C29.0863 7.57333 29.0436 6.89067 29.001 6.272C28.969 5.64267 28.937 5.21067 28.905 4.976C28.7343 4.976 28.4783 4.98667 28.137 5.008C27.7956 5.02933 27.465 5.05067 27.145 5.072C26.825 5.09333 26.601 5.11467 26.473 5.136C26.409 5.44533 26.3183 5.87733 26.201 6.432C26.0943 6.976 25.977 7.584 25.849 8.256C25.721 8.928 25.593 9.58933 25.465 10.24C25.3476 10.88 25.241 11.456 25.145 11.968ZM43.0682 22.288C42.6522 22.288 42.1562 22.2827 41.5802 22.272C41.0149 22.2613 40.4389 22.24 39.8522 22.208C39.2762 22.176 38.7536 22.1333 38.2842 22.08C38.2629 21.3867 38.2416 20.5013 38.2202 19.424C38.1989 18.336 38.1776 17.1787 38.1562 15.952C38.1456 14.7253 38.1402 13.5573 38.1402 12.448C38.1402 10.7413 38.1509 8.91733 38.1722 6.976C38.2042 5.03467 38.2416 3.024 38.2842 0.943998C38.4656 0.933332 38.7536 0.927999 39.1482 0.927999C39.5429 0.917332 39.9856 0.906666 40.4762 0.896C40.9776 0.874666 41.4576 0.863998 41.9162 0.863998C42.3856 0.853332 42.7802 0.848 43.1002 0.848C43.1642 1.98933 43.2176 3.25867 43.2602 4.656C43.3029 6.04267 43.3349 7.46133 43.3562 8.912C43.3776 10.3627 43.3882 11.7547 43.3882 13.088C43.3882 13.7493 43.3829 14.4373 43.3722 15.152C43.3722 15.8667 43.3669 16.576 43.3562 17.28C43.3456 17.984 43.3242 18.656 43.2922 19.296C43.2602 19.936 43.2282 20.5173 43.1962 21.04C43.1642 21.552 43.1216 21.968 43.0682 22.288ZM56.0302 22.816C53.8009 22.816 51.9769 22.336 50.5582 21.376C49.1502 20.416 48.1102 19.1093 47.4382 17.456C46.7769 15.8027 46.4462 13.9413 46.4462 11.872C46.4462 9.73867 46.8196 7.84533 47.5662 6.192C48.3236 4.53867 49.4116 3.24267 50.8302 2.304C52.2596 1.35467 53.9929 0.879999 56.0302 0.879999C57.7262 0.879999 59.1822 1.16267 60.3982 1.728C61.6142 2.29333 62.6062 3.07733 63.3742 4.08C64.1529 5.08267 64.7236 6.24533 65.0862 7.568C65.4489 8.89067 65.6302 10.32 65.6302 11.856C65.6302 13.296 65.4436 14.672 65.0702 15.984C64.7076 17.296 64.1369 18.464 63.3582 19.488C62.5902 20.512 61.5982 21.3227 60.3822 21.92C59.1769 22.5173 57.7262 22.816 56.0302 22.816ZM56.0782 17.696C57.1662 17.696 58.0729 17.3973 58.7982 16.8C59.5342 16.2027 60.0836 15.424 60.4462 14.464C60.8089 13.4933 60.9902 12.4587 60.9902 11.36C60.9902 10.5493 60.9102 9.77067 60.7502 9.024C60.5902 8.26667 60.3342 7.59467 59.9822 7.008C59.6302 6.42133 59.1556 5.95733 58.5582 5.616C57.9609 5.27467 57.2249 5.104 56.3502 5.104C55.3582 5.104 54.5049 5.40267 53.7902 6C53.0756 6.59733 52.5209 7.40267 52.1262 8.416C51.7422 9.41867 51.5502 10.544 51.5502 11.792C51.5502 12.9013 51.6942 13.904 51.9822 14.8C52.2809 15.6853 52.7609 16.3893 53.4222 16.912C54.0942 17.4347 54.9796 17.696 56.0782 17.696ZM84.5062 22.096L79.0182 21.84C78.9862 19.536 78.9329 17.2213 78.8582 14.896C78.7836 12.56 78.7036 10.24 78.6182 7.936C78.5329 5.632 78.4369 3.37067 78.3302 1.152C79.4929 1.088 80.6236 1.05067 81.7222 1.04C82.8209 1.01867 83.8556 1.01333 84.8262 1.024C86.0422 1.024 87.1356 1.072 88.1062 1.168C89.0876 1.264 89.9302 1.38133 90.6342 1.52C90.6982 2.26667 90.7462 3.04533 90.7782 3.856C90.8102 4.656 90.8262 5.344 90.8262 5.92C90.4209 5.888 89.8182 5.84533 89.0182 5.792C88.2289 5.73867 87.3329 5.69067 86.3302 5.648C85.3382 5.59467 84.3196 5.568 83.2742 5.568C83.3062 5.824 83.3329 6.14933 83.3542 6.544C83.3862 6.928 83.4182 7.33333 83.4502 7.76C83.4822 8.176 83.5036 8.56533 83.5142 8.928C84.2502 8.928 85.0236 8.95467 85.8342 9.008C86.6556 9.05067 87.3969 9.10933 88.0582 9.184C88.7302 9.25867 89.2049 9.31733 89.4822 9.36C89.4822 9.98933 89.4716 10.6507 89.4502 11.344C89.4396 12.0267 89.4076 12.7413 89.3542 13.488C88.8956 13.4347 88.3516 13.3867 87.7222 13.344C87.0929 13.2907 86.4422 13.248 85.7702 13.216C85.0982 13.184 84.4689 13.168 83.8822 13.168C83.9676 14.0427 84.0476 14.992 84.1222 16.016C84.2076 17.04 84.2822 18.0747 84.3462 19.12C84.4102 20.1547 84.4636 21.1467 84.5062 22.096ZM96.2455 22.24C95.9788 22.24 95.6108 22.2293 95.1415 22.208C94.6721 22.1973 94.1655 22.1813 93.6215 22.16C93.0881 22.1493 92.5655 22.1333 92.0535 22.112C91.5521 22.0907 91.1361 22.0693 90.8055 22.048C90.9228 21.3867 91.0828 20.544 91.2855 19.52C91.4988 18.496 91.7441 17.36 92.0215 16.112C92.2988 14.864 92.5921 13.5627 92.9015 12.208C93.2108 10.8427 93.5308 9.488 93.8615 8.144C94.1921 6.8 94.5121 5.52533 94.8215 4.32C95.1308 3.11467 95.4188 2.04267 95.6855 1.104C96.7628 0.965333 97.8241 0.853333 98.8695 0.768C99.9255 0.671999 100.949 0.623999 101.941 0.623999C102.507 0.623999 103.072 0.639999 103.637 0.671999C104.203 0.703999 104.763 0.757332 105.317 0.831999C105.52 1.77067 105.728 2.848 105.941 4.064C106.155 5.28 106.368 6.71467 106.581 8.368C106.805 10.0107 107.024 11.9467 107.237 14.176C107.461 16.3947 107.685 18.9813 107.909 21.936C107.557 21.9787 107.056 22.0267 106.405 22.08C105.755 22.1333 105.072 22.1707 104.357 22.192C103.653 22.224 103.024 22.24 102.469 22.24C102.448 21.9307 102.427 21.5787 102.405 21.184C102.395 20.7893 102.379 20.368 102.357 19.92C102.336 19.472 102.315 19.0187 102.293 18.56C102.283 18.1013 102.272 17.6587 102.261 17.232C102.251 16.8053 102.24 16.4107 102.229 16.048C101.888 16.0587 101.52 16.0747 101.125 16.096C100.731 16.1067 100.331 16.128 99.9255 16.16C99.5308 16.1813 99.1575 16.208 98.8055 16.24C98.4535 16.2613 98.1441 16.288 97.8775 16.32C97.6108 16.352 97.4188 16.3787 97.3015 16.4C97.1415 17.1253 96.9921 17.856 96.8535 18.592C96.7148 19.328 96.5921 20.016 96.4855 20.656C96.3788 21.2853 96.2988 21.8133 96.2455 22.24ZM97.9575 11.968C98.2028 11.9253 98.5868 11.8773 99.1095 11.824C99.6321 11.7707 100.176 11.728 100.741 11.696C101.307 11.664 101.765 11.6427 102.117 11.632C102.096 11.408 102.069 10.9867 102.037 10.368C102.016 9.73867 101.984 9.056 101.941 8.32C101.899 7.57333 101.856 6.89067 101.813 6.272C101.781 5.64267 101.749 5.21067 101.717 4.976C101.547 4.976 101.291 4.98667 100.949 5.008C100.608 5.02933 100.277 5.05067 99.9575 5.072C99.6375 5.09333 99.4135 5.11467 99.2855 5.136C99.2215 5.44533 99.1308 5.87733 99.0135 6.432C98.9068 6.976 98.7895 7.584 98.6615 8.256C98.5335 8.928 98.4055 9.58933 98.2775 10.24C98.1601 10.88 98.0535 11.456 97.9575 11.968ZM119.961 22.768C117.87 22.768 116.083 22.3253 114.601 21.44C113.129 20.5547 112.003 19.2853 111.225 17.632C110.446 15.968 110.057 13.9787 110.057 11.664C110.057 9.49867 110.409 7.584 111.113 5.92C111.827 4.256 112.867 2.95467 114.233 2.016C115.598 1.06667 117.262 0.591999 119.225 0.591999C120.291 0.591999 121.315 0.741332 122.297 1.04C123.289 1.328 124.185 1.73867 124.985 2.272C125.785 2.80533 126.43 3.44 126.921 4.176C126.739 4.41067 126.419 4.736 125.961 5.152C125.513 5.568 125.017 5.99467 124.473 6.432C123.929 6.86933 123.411 7.23733 122.921 7.536C122.675 7.17333 122.382 6.83733 122.041 6.528C121.71 6.21867 121.315 5.97333 120.857 5.792C120.398 5.61067 119.859 5.52 119.241 5.52C118.643 5.52 118.094 5.68533 117.593 6.016C117.091 6.336 116.659 6.784 116.297 7.36C115.934 7.936 115.651 8.61867 115.449 9.408C115.257 10.1867 115.161 11.0347 115.161 11.952C115.161 13.1787 115.337 14.272 115.689 15.232C116.041 16.1813 116.574 16.928 117.289 17.472C118.003 18.0053 118.91 18.272 120.009 18.272C120.691 18.272 121.267 18.1387 121.737 17.872C122.217 17.5947 122.579 17.232 122.825 16.784C123.081 16.3253 123.209 15.8347 123.209 15.312C123.209 15.1627 123.203 15.0293 123.193 14.912C123.193 14.7947 123.182 14.6827 123.161 14.576C122.979 14.5227 122.697 14.4693 122.313 14.416C121.929 14.352 121.502 14.2933 121.033 14.24C120.574 14.176 120.131 14.128 119.705 14.096C119.278 14.0533 118.926 14.0267 118.649 14.016C118.649 13.7173 118.654 13.3387 118.665 12.88C118.675 12.4107 118.691 11.9467 118.713 11.488C118.745 11.0187 118.777 10.64 118.809 10.352C119.566 10.3627 120.489 10.4267 121.577 10.544C122.665 10.6507 123.758 10.7893 124.857 10.96C125.966 11.1307 126.915 11.3173 127.705 11.52C127.811 11.9147 127.886 12.3627 127.929 12.864C127.971 13.3547 127.993 13.8027 127.993 14.208C127.993 15.7547 127.699 17.1787 127.113 18.48C126.537 19.7707 125.651 20.8107 124.457 21.6C123.273 22.3787 121.774 22.768 119.961 22.768ZM138.879 22.496C136.98 22.496 135.487 22.0693 134.399 21.216C133.322 20.3627 132.516 19.1467 131.983 17.568C131.492 16.1493 131.183 14.4267 131.055 12.4C130.938 10.3627 130.879 8.064 130.879 5.504C130.879 5.10933 130.884 4.69867 130.895 4.272C130.906 3.84533 130.916 3.41333 130.927 2.976C130.938 2.528 130.948 2.096 130.959 1.68C130.98 1.264 130.996 0.88 131.007 0.528C131.444 0.474665 131.887 0.437331 132.335 0.415998C132.783 0.383998 133.21 0.367998 133.615 0.367998C134.159 0.367998 134.698 0.383998 135.231 0.415998C135.764 0.447999 136.239 0.485332 136.655 0.528C136.591 1.328 136.532 2.19733 136.479 3.136C136.426 4.07467 136.383 5.03467 136.351 6.016C136.33 6.98667 136.319 7.93067 136.319 8.848C136.319 9.91467 136.351 10.864 136.415 11.696C136.479 12.5173 136.58 13.2213 136.719 13.808C136.922 14.6827 137.226 15.328 137.631 15.744C138.036 16.16 138.559 16.368 139.199 16.368C139.903 16.368 140.452 16.128 140.847 15.648C141.252 15.168 141.535 14.4907 141.695 13.616C141.855 12.7413 141.935 11.7227 141.935 10.56C141.935 10.1333 141.924 9.584 141.903 8.912C141.892 8.22933 141.876 7.49333 141.855 6.704C141.834 5.904 141.807 5.11467 141.775 4.336C141.743 3.55733 141.706 2.85333 141.663 2.224C141.62 1.584 141.578 1.088 141.535 0.735998C141.962 0.735998 142.452 0.757332 143.007 0.799999C143.572 0.831999 144.127 0.869333 144.671 0.911999C145.226 0.954666 145.706 1.00267 146.111 1.056C146.516 1.10933 146.778 1.152 146.895 1.184C146.991 1.74933 147.066 2.368 147.119 3.04C147.172 3.70133 147.215 4.38933 147.247 5.104C147.279 5.81867 147.295 6.53333 147.295 7.248C147.295 9.37067 147.183 11.3547 146.959 13.2C146.746 15.0453 146.34 16.6667 145.743 18.064C145.146 19.4507 144.292 20.5387 143.183 21.328C142.074 22.1067 140.639 22.496 138.879 22.496ZM156.141 22.096C155.491 22.1067 154.803 22.0907 154.077 22.048C153.363 22.016 152.701 21.9733 152.093 21.92C151.485 21.8667 151.016 21.8187 150.685 21.776C150.685 21.6693 150.685 21.376 150.685 20.896C150.685 20.416 150.685 19.8027 150.685 19.056C150.685 18.3093 150.685 17.4827 150.685 16.576C150.685 15.6587 150.685 14.7093 150.685 13.728C150.696 12.7467 150.701 11.7867 150.701 10.848C150.701 9.68533 150.696 8.53333 150.685 7.392C150.675 6.24 150.659 5.17333 150.637 4.192C150.616 3.2 150.584 2.37867 150.541 1.728C150.755 1.728 151.08 1.73867 151.517 1.76C151.955 1.78133 152.435 1.808 152.957 1.84C153.491 1.872 154.008 1.91467 154.509 1.968C155.011 2.01067 155.437 2.05867 155.789 2.112C156.483 3.11467 157.149 4.13867 157.789 5.184C158.44 6.21867 159.053 7.264 159.629 8.32C160.216 9.36533 160.765 10.4107 161.277 11.456C161.8 12.5013 162.285 13.5307 162.733 14.544L162.077 2.016C162.397 2.016 162.787 2.032 163.245 2.064C163.715 2.096 164.195 2.13333 164.685 2.176C165.187 2.21867 165.645 2.272 166.061 2.336C166.488 2.4 166.808 2.464 167.021 2.528C167.053 2.98667 167.085 3.51467 167.117 4.112C167.16 4.69867 167.192 5.33333 167.213 6.016C167.235 6.688 167.256 7.38667 167.277 8.112C167.299 8.82667 167.315 9.54667 167.325 10.272C167.336 10.9867 167.341 11.6747 167.341 12.336C167.341 13.4133 167.325 14.48 167.293 15.536C167.272 16.5813 167.235 17.5573 167.181 18.464C167.139 19.36 167.091 20.1173 167.037 20.736C166.984 21.344 166.925 21.7493 166.861 21.952C166.563 21.9627 166.243 21.9733 165.901 21.984C165.571 21.984 165.235 21.984 164.893 21.984C164.392 21.984 163.901 21.9733 163.421 21.952C162.952 21.9307 162.557 21.8933 162.237 21.84C162.131 21.648 161.949 21.3227 161.693 20.864C161.448 20.3947 161.144 19.8293 160.781 19.168C160.419 18.496 160.024 17.7653 159.597 16.976C159.171 16.1867 158.733 15.3813 158.285 14.56C157.837 13.728 157.395 12.9173 156.957 12.128C156.52 11.3387 156.12 10.6133 155.757 9.952C155.789 10.2507 155.821 10.704 155.853 11.312C155.885 11.92 155.912 12.624 155.933 13.424C155.965 14.224 155.992 15.056 156.013 15.92C156.035 16.7733 156.056 17.6107 156.077 18.432C156.099 19.2427 156.115 19.9733 156.125 20.624C156.136 21.264 156.141 21.7547 156.141 22.096ZM171.953 22.512C171.889 22.0107 171.815 21.2907 171.729 20.352C171.655 19.4027 171.564 18.32 171.457 17.104C171.351 15.8773 171.244 14.5973 171.137 13.264C171.031 11.92 170.924 10.592 170.817 9.28C170.711 7.968 170.615 6.75733 170.529 5.648C170.455 4.528 170.385 3.57867 170.321 2.8C170.268 2.01067 170.231 1.48267 170.209 1.216C170.647 1.16267 171.207 1.104 171.889 1.04C172.572 0.975998 173.303 0.922665 174.081 0.879999C174.86 0.826666 175.591 0.799999 176.273 0.799999C178.236 0.799999 179.9 1.01867 181.265 1.456C182.631 1.88267 183.729 2.54933 184.561 3.456C185.393 4.352 185.996 5.49333 186.369 6.88C186.743 8.26667 186.929 9.904 186.929 11.792C186.929 13.9787 186.636 15.7707 186.049 17.168C185.473 18.5547 184.572 19.6373 183.345 20.416C182.129 21.184 180.577 21.7173 178.689 22.016C176.812 22.3253 174.567 22.4907 171.953 22.512ZM176.737 17.216C178.007 17.1733 179.004 16.9547 179.729 16.56C180.465 16.1653 180.983 15.6 181.281 14.864C181.591 14.1173 181.745 13.2107 181.745 12.144C181.745 10.9493 181.596 9.824 181.297 8.768C181.009 7.712 180.524 6.85867 179.841 6.208C179.169 5.55733 178.252 5.232 177.089 5.232C176.897 5.232 176.689 5.232 176.465 5.232C176.252 5.232 176.06 5.24267 175.889 5.264C175.975 6.42667 176.06 7.712 176.145 9.12C176.241 10.5173 176.343 11.92 176.449 13.328C176.556 14.7253 176.652 16.0213 176.737 17.216ZM201.509 22.208C200.464 22.144 199.429 22.08 198.405 22.016C197.381 21.9627 196.341 21.92 195.285 21.888C194.432 21.8453 193.563 21.8027 192.677 21.76C191.792 21.7067 190.917 21.6587 190.053 21.616C189.979 19.824 189.925 18.0853 189.893 16.4C189.872 14.704 189.861 13.1147 189.861 11.632C189.861 9.25333 189.883 7.232 189.925 5.568C189.968 3.904 190.011 2.70933 190.053 1.984C192.069 1.61067 193.936 1.33867 195.653 1.168C197.371 0.986666 198.805 0.874666 199.957 0.831999C201.12 0.789333 201.845 0.768 202.133 0.768C202.133 1.46133 202.112 2.144 202.069 2.816C202.027 3.47733 201.973 4.176 201.909 4.912L195.061 5.472C195.051 5.61067 195.04 5.82933 195.029 6.128C195.019 6.416 195.008 6.736 194.997 7.088C194.997 7.42933 194.997 7.74933 194.997 8.048C194.997 8.34667 194.997 8.56533 194.997 8.704C195.243 8.704 195.557 8.704 195.941 8.704C196.336 8.69333 196.763 8.68267 197.221 8.672C197.691 8.66133 198.16 8.65067 198.629 8.64C199.099 8.62933 199.536 8.624 199.941 8.624C200.357 8.61333 200.709 8.60267 200.997 8.592L200.933 12.976C200.795 12.976 200.523 12.9707 200.117 12.96C199.712 12.9387 199.243 12.9173 198.709 12.896C198.187 12.8747 197.659 12.8587 197.125 12.848C196.592 12.8267 196.123 12.8107 195.717 12.8C195.312 12.7893 195.035 12.7893 194.885 12.8C194.875 12.9067 194.864 13.088 194.853 13.344C194.853 13.5893 194.848 13.872 194.837 14.192C194.837 14.5013 194.837 14.8267 194.837 15.168C194.837 15.4987 194.832 15.808 194.821 16.096C194.821 16.3733 194.821 16.5973 194.821 16.768C194.96 16.768 195.333 16.768 195.941 16.768C196.549 16.7573 197.173 16.752 197.813 16.752C198.347 16.752 198.88 16.7627 199.413 16.784C199.947 16.8053 200.443 16.832 200.901 16.864C201.36 16.8853 201.733 16.9067 202.021 16.928C202.021 17.3547 202 17.8453 201.957 18.4C201.915 18.944 201.867 19.4827 201.813 20.016C201.771 20.5493 201.717 21.0187 201.653 21.424C201.6 21.8187 201.552 22.08 201.509 22.208ZM212.71 22.256C211.91 22.256 211.094 22.16 210.262 21.968C209.441 21.776 208.641 21.4933 207.862 21.12C207.094 20.7467 206.39 20.288 205.75 19.744C205.11 19.1893 204.571 18.5547 204.134 17.84C204.198 17.7333 204.369 17.552 204.646 17.296C204.923 17.0293 205.243 16.7413 205.606 16.432C205.969 16.112 206.326 15.8187 206.678 15.552C207.041 15.2853 207.339 15.0933 207.574 14.976C207.915 15.3707 208.278 15.7653 208.662 16.16C209.057 16.5547 209.473 16.912 209.91 17.232C210.358 17.5413 210.838 17.792 211.35 17.984C211.862 18.176 212.406 18.272 212.982 18.272C213.643 18.272 214.166 18.1493 214.55 17.904C214.945 17.6587 215.227 17.3493 215.398 16.976C215.569 16.592 215.654 16.2027 215.654 15.808C215.654 15.488 215.574 15.184 215.414 14.896C215.254 14.608 215.014 14.336 214.694 14.08C214.374 13.8133 213.974 13.5573 213.494 13.312C213.025 13.056 212.47 12.816 211.83 12.592C210.55 12.1013 209.393 11.584 208.358 11.04C207.323 10.4853 206.497 9.81867 205.878 9.04C205.27 8.26133 204.966 7.28533 204.966 6.112C204.966 4.864 205.313 3.81867 206.006 2.976C206.699 2.13333 207.617 1.49867 208.758 1.072C209.899 0.634665 211.126 0.415998 212.438 0.415998C213.43 0.415998 214.39 0.527998 215.318 0.751999C216.257 0.965332 217.131 1.29067 217.942 1.728C218.753 2.16533 219.451 2.71467 220.038 3.376C219.878 3.61067 219.627 3.92533 219.286 4.32C218.945 4.71467 218.582 5.10933 218.198 5.504C217.814 5.89867 217.489 6.21333 217.222 6.448C216.795 6.032 216.321 5.65867 215.798 5.328C215.275 4.98667 214.726 4.72 214.15 4.528C213.574 4.32533 212.993 4.224 212.406 4.224C211.723 4.224 211.147 4.37333 210.678 4.672C210.209 4.96 209.974 5.39733 209.974 5.984C209.974 6.25067 210.033 6.49067 210.15 6.704C210.278 6.91733 210.454 7.10933 210.678 7.28C210.902 7.45067 211.169 7.61067 211.478 7.76C211.787 7.89867 212.134 8.032 212.518 8.16C213.606 8.52267 214.641 8.90133 215.622 9.296C216.614 9.69067 217.489 10.1493 218.246 10.672C219.014 11.184 219.617 11.8133 220.054 12.56C220.491 13.3067 220.71 14.2187 220.71 15.296C220.71 16.3093 220.513 17.2427 220.118 18.096C219.723 18.9387 219.169 19.6747 218.454 20.304C217.75 20.9227 216.907 21.4027 215.926 21.744C214.955 22.0853 213.883 22.256 212.71 22.256Z" fill="#403C3C"/>
</svg>
