<svg width="166" height="18" viewBox="0 0 166 18" fill="none" xmlns="http://www.w3.org/2000/svg">
<path d="M1.34397 17.384C1.34397 16.928 1.33197 16.324 1.30797 15.572C1.29197 14.812 1.26797 13.96 1.23597 13.016C1.20397 12.072 1.16397 11.08 1.11597 10.04C1.06797 9 1.01997 7.964 0.971969 6.932C0.92397 5.892 0.87597 4.904 0.82797 3.968C0.78797 3.024 0.74397 2.184 0.69597 1.448C0.97597 1.392 1.29597 1.356 1.65597 1.34C2.01597 1.316 2.35597 1.304 2.67597 1.304C3.05197 1.304 3.40397 1.32 3.73197 1.352C4.06797 1.376 4.32797 1.404 4.51197 1.436C4.51997 1.644 4.53197 1.98 4.54797 2.444C4.56397 2.9 4.58397 3.428 4.60797 4.028C4.63197 4.628 4.65597 5.24 4.67997 5.864C4.71197 6.488 4.73997 7.064 4.76397 7.592C5.07597 7.32 5.41597 6.968 5.78397 6.536C6.15997 6.096 6.54797 5.596 6.94797 5.036C7.35597 4.476 7.75597 3.876 8.14797 3.236C8.53997 2.596 8.91197 1.932 9.26397 1.244C9.88797 1.724 10.504 2.148 11.112 2.516C11.728 2.876 12.164 3.124 12.42 3.26C12.324 3.484 12.136 3.812 11.856 4.244C11.576 4.676 11.236 5.156 10.836 5.684C10.444 6.212 10.012 6.74 9.53997 7.268C9.06797 7.796 8.59197 8.264 8.11197 8.672C8.50397 9.12 8.90397 9.612 9.31197 10.148C9.71997 10.676 10.108 11.212 10.476 11.756C10.852 12.292 11.196 12.804 11.508 13.292C11.82 13.78 12.08 14.208 12.288 14.576C12.504 14.944 12.648 15.216 12.72 15.392C12.52 15.528 12.22 15.704 11.82 15.92C11.42 16.136 10.992 16.348 10.536 16.556C10.088 16.764 9.68397 16.924 9.32397 17.036C9.24397 16.836 9.10797 16.552 8.91597 16.184C8.72397 15.808 8.49997 15.388 8.24397 14.924C7.98797 14.452 7.71197 13.972 7.41597 13.484C7.12797 12.996 6.83997 12.532 6.55197 12.092C6.26397 11.652 5.99597 11.28 5.74797 10.976C5.61997 11.08 5.49197 11.172 5.36397 11.252C5.23597 11.324 5.11597 11.392 5.00397 11.456C5.04397 11.944 5.08397 12.484 5.12397 13.076C5.16397 13.66 5.19997 14.228 5.23197 14.78C5.26397 15.332 5.28797 15.808 5.30397 16.208C5.32797 16.608 5.33997 16.864 5.33997 16.976C5.19597 16.984 4.90797 17.008 4.47597 17.048C4.04397 17.088 3.54797 17.136 2.98797 17.192C2.43597 17.256 1.88797 17.32 1.34397 17.384ZM17.5747 17.18C17.3747 17.18 17.0987 17.172 16.7467 17.156C16.3947 17.148 16.0147 17.136 15.6067 17.12C15.2067 17.112 14.8147 17.1 14.4307 17.084C14.0547 17.068 13.7427 17.052 13.4947 17.036C13.5827 16.54 13.7027 15.908 13.8547 15.14C14.0147 14.372 14.1987 13.52 14.4067 12.584C14.6147 11.648 14.8347 10.672 15.0667 9.656C15.2987 8.632 15.5387 7.616 15.7867 6.608C16.0347 5.6 16.2747 4.644 16.5067 3.74C16.7387 2.836 16.9547 2.032 17.1547 1.328C17.9627 1.224 18.7587 1.14 19.5427 1.076C20.3347 1.004 21.1027 0.967999 21.8467 0.967999C22.2707 0.967999 22.6947 0.979999 23.1187 1.004C23.5427 1.028 23.9627 1.068 24.3787 1.124C24.5307 1.828 24.6867 2.636 24.8467 3.548C25.0067 4.46 25.1667 5.536 25.3267 6.776C25.4947 8.008 25.6587 9.46 25.8187 11.132C25.9867 12.796 26.1547 14.736 26.3227 16.952C26.0587 16.984 25.6827 17.02 25.1947 17.06C24.7067 17.1 24.1947 17.128 23.6587 17.144C23.1307 17.168 22.6587 17.18 22.2427 17.18C22.2267 16.948 22.2107 16.684 22.1947 16.388C22.1867 16.092 22.1747 15.776 22.1587 15.44C22.1427 15.104 22.1267 14.764 22.1107 14.42C22.1027 14.076 22.0947 13.744 22.0867 13.424C22.0787 13.104 22.0707 12.808 22.0627 12.536C21.8067 12.544 21.5307 12.556 21.2347 12.572C20.9387 12.58 20.6387 12.596 20.3347 12.62C20.0387 12.636 19.7587 12.656 19.4947 12.68C19.2307 12.696 18.9987 12.716 18.7987 12.74C18.5987 12.764 18.4547 12.784 18.3667 12.8C18.2467 13.344 18.1347 13.892 18.0307 14.444C17.9267 14.996 17.8347 15.512 17.7547 15.992C17.6747 16.464 17.6147 16.86 17.5747 17.18ZM18.8587 9.476C19.0427 9.444 19.3307 9.408 19.7227 9.368C20.1147 9.328 20.5227 9.296 20.9467 9.272C21.3707 9.248 21.7147 9.232 21.9787 9.224C21.9627 9.056 21.9427 8.74 21.9187 8.276C21.9027 7.804 21.8787 7.292 21.8467 6.74C21.8147 6.18 21.7827 5.668 21.7507 5.204C21.7267 4.732 21.7027 4.408 21.6787 4.232C21.5507 4.232 21.3587 4.24 21.1027 4.256C20.8467 4.272 20.5987 4.288 20.3587 4.304C20.1187 4.32 19.9507 4.336 19.8547 4.352C19.8067 4.584 19.7387 4.908 19.6507 5.324C19.5707 5.732 19.4827 6.188 19.3867 6.692C19.2907 7.196 19.1947 7.692 19.0987 8.18C19.0107 8.66 18.9307 9.092 18.8587 9.476ZM32.3012 17.216C31.9892 17.216 31.6172 17.212 31.1852 17.204C30.7612 17.196 30.3292 17.18 29.8892 17.156C29.4572 17.132 29.0652 17.1 28.7132 17.06C28.6972 16.54 28.6812 15.876 28.6652 15.068C28.6492 14.252 28.6332 13.384 28.6172 12.464C28.6092 11.544 28.6052 10.668 28.6052 9.836C28.6052 8.556 28.6132 7.188 28.6292 5.732C28.6532 4.276 28.6812 2.768 28.7132 1.208C28.8492 1.2 29.0652 1.196 29.3612 1.196C29.6572 1.188 29.9892 1.18 30.3572 1.172C30.7332 1.156 31.0932 1.148 31.4372 1.148C31.7892 1.14 32.0852 1.136 32.3252 1.136C32.3732 1.992 32.4132 2.944 32.4452 3.992C32.4772 5.032 32.5012 6.096 32.5172 7.184C32.5332 8.272 32.5412 9.316 32.5412 10.316C32.5412 10.812 32.5372 11.328 32.5292 11.864C32.5292 12.4 32.5252 12.932 32.5172 13.46C32.5092 13.988 32.4932 14.492 32.4692 14.972C32.4452 15.452 32.4212 15.888 32.3972 16.28C32.3732 16.664 32.3412 16.976 32.3012 17.216ZM42.0227 17.612C40.3507 17.612 38.9827 17.252 37.9187 16.532C36.8627 15.812 36.0827 14.832 35.5787 13.592C35.0827 12.352 34.8347 10.956 34.8347 9.404C34.8347 7.804 35.1147 6.384 35.6747 5.144C36.2427 3.904 37.0587 2.932 38.1227 2.228C39.1947 1.516 40.4947 1.16 42.0227 1.16C43.2947 1.16 44.3867 1.372 45.2987 1.796C46.2107 2.22 46.9547 2.808 47.5307 3.56C48.1147 4.312 48.5427 5.184 48.8147 6.176C49.0867 7.168 49.2227 8.24 49.2227 9.392C49.2227 10.472 49.0827 11.504 48.8027 12.488C48.5307 13.472 48.1027 14.348 47.5187 15.116C46.9427 15.884 46.1987 16.492 45.2867 16.94C44.3827 17.388 43.2947 17.612 42.0227 17.612ZM42.0587 13.772C42.8747 13.772 43.5547 13.548 44.0987 13.1C44.6507 12.652 45.0627 12.068 45.3347 11.348C45.6067 10.62 45.7427 9.844 45.7427 9.02C45.7427 8.412 45.6827 7.828 45.5627 7.268C45.4427 6.7 45.2507 6.196 44.9867 5.756C44.7227 5.316 44.3667 4.968 43.9187 4.712C43.4707 4.456 42.9187 4.328 42.2627 4.328C41.5187 4.328 40.8787 4.552 40.3427 5C39.8067 5.448 39.3907 6.052 39.0947 6.812C38.8067 7.564 38.6627 8.408 38.6627 9.344C38.6627 10.176 38.7707 10.928 38.9867 11.6C39.2107 12.264 39.5707 12.792 40.0667 13.184C40.5707 13.576 41.2347 13.772 42.0587 13.772ZM63.3797 17.072L59.2637 16.88C59.2397 15.152 59.1997 13.416 59.1437 11.672C59.0877 9.92 59.0277 8.18 58.9637 6.452C58.8997 4.724 58.8277 3.028 58.7477 1.364C59.6197 1.316 60.4677 1.288 61.2917 1.28C62.1157 1.264 62.8917 1.26 63.6197 1.268C64.5317 1.268 65.3517 1.304 66.0797 1.376C66.8157 1.448 67.4477 1.536 67.9757 1.64C68.0237 2.2 68.0597 2.784 68.0837 3.392C68.1077 3.992 68.1197 4.508 68.1197 4.94C67.8157 4.916 67.3637 4.884 66.7637 4.844C66.1717 4.804 65.4997 4.768 64.7477 4.736C64.0037 4.696 63.2397 4.676 62.4557 4.676C62.4797 4.868 62.4997 5.112 62.5157 5.408C62.5397 5.696 62.5637 6 62.5877 6.32C62.6117 6.632 62.6277 6.924 62.6357 7.196C63.1877 7.196 63.7677 7.216 64.3757 7.256C64.9917 7.288 65.5477 7.332 66.0437 7.388C66.5477 7.444 66.9037 7.488 67.1117 7.52C67.1117 7.992 67.1037 8.488 67.0877 9.008C67.0797 9.52 67.0557 10.056 67.0157 10.616C66.6717 10.576 66.2637 10.54 65.7917 10.508C65.3197 10.468 64.8317 10.436 64.3277 10.412C63.8237 10.388 63.3517 10.376 62.9117 10.376C62.9757 11.032 63.0357 11.744 63.0917 12.512C63.1557 13.28 63.2117 14.056 63.2597 14.84C63.3077 15.616 63.3477 16.36 63.3797 17.072ZM72.1841 17.18C71.9841 17.18 71.7081 17.172 71.3561 17.156C71.0041 17.148 70.6241 17.136 70.2161 17.12C69.8161 17.112 69.4241 17.1 69.0401 17.084C68.6641 17.068 68.3521 17.052 68.1041 17.036C68.1921 16.54 68.3121 15.908 68.4641 15.14C68.6241 14.372 68.8081 13.52 69.0161 12.584C69.2241 11.648 69.4441 10.672 69.6761 9.656C69.9081 8.632 70.1481 7.616 70.3961 6.608C70.6441 5.6 70.8841 4.644 71.1161 3.74C71.3481 2.836 71.5641 2.032 71.7641 1.328C72.5721 1.224 73.3681 1.14 74.1521 1.076C74.9441 1.004 75.7121 0.967999 76.4561 0.967999C76.8801 0.967999 77.3041 0.979999 77.7281 1.004C78.1521 1.028 78.5721 1.068 78.9881 1.124C79.1401 1.828 79.2961 2.636 79.4561 3.548C79.6161 4.46 79.7761 5.536 79.9361 6.776C80.1041 8.008 80.2681 9.46 80.4281 11.132C80.5961 12.796 80.7641 14.736 80.9321 16.952C80.6681 16.984 80.2921 17.02 79.8041 17.06C79.3161 17.1 78.8041 17.128 78.2681 17.144C77.7401 17.168 77.2681 17.18 76.8521 17.18C76.8361 16.948 76.8201 16.684 76.8041 16.388C76.7961 16.092 76.7841 15.776 76.7681 15.44C76.7521 15.104 76.7361 14.764 76.7201 14.42C76.7121 14.076 76.7041 13.744 76.6961 13.424C76.6881 13.104 76.6801 12.808 76.6721 12.536C76.4161 12.544 76.1401 12.556 75.8441 12.572C75.5481 12.58 75.2481 12.596 74.9441 12.62C74.6481 12.636 74.3681 12.656 74.1041 12.68C73.8401 12.696 73.6081 12.716 73.4081 12.74C73.2081 12.764 73.0641 12.784 72.9761 12.8C72.8561 13.344 72.7441 13.892 72.6401 14.444C72.5361 14.996 72.4441 15.512 72.3641 15.992C72.2841 16.464 72.2241 16.86 72.1841 17.18ZM73.4681 9.476C73.6521 9.444 73.9401 9.408 74.3321 9.368C74.7241 9.328 75.1321 9.296 75.5561 9.272C75.9801 9.248 76.3241 9.232 76.5881 9.224C76.5721 9.056 76.5521 8.74 76.5281 8.276C76.5121 7.804 76.4881 7.292 76.4561 6.74C76.4241 6.18 76.3921 5.668 76.3601 5.204C76.3361 4.732 76.3121 4.408 76.2881 4.232C76.1601 4.232 75.9681 4.24 75.7121 4.256C75.4561 4.272 75.2081 4.288 74.9681 4.304C74.7281 4.32 74.5601 4.336 74.4641 4.352C74.4161 4.584 74.3481 4.908 74.2601 5.324C74.1801 5.732 74.0921 6.188 73.9961 6.692C73.9001 7.196 73.8041 7.692 73.7081 8.18C73.6201 8.66 73.5401 9.092 73.4681 9.476ZM89.9705 17.576C88.4025 17.576 87.0625 17.244 85.9505 16.58C84.8465 15.916 84.0025 14.964 83.4185 13.724C82.8345 12.476 82.5425 10.984 82.5425 9.248C82.5425 7.624 82.8065 6.188 83.3345 4.94C83.8705 3.692 84.6505 2.716 85.6745 2.012C86.6985 1.3 87.9465 0.943999 89.4185 0.943999C90.2185 0.943999 90.9865 1.056 91.7225 1.28C92.4665 1.496 93.1385 1.804 93.7385 2.204C94.3385 2.604 94.8225 3.08 95.1905 3.632C95.0545 3.808 94.8145 4.052 94.4705 4.364C94.1345 4.676 93.7625 4.996 93.3545 5.324C92.9465 5.652 92.5585 5.928 92.1905 6.152C92.0065 5.88 91.7865 5.628 91.5305 5.396C91.2825 5.164 90.9865 4.98 90.6425 4.844C90.2985 4.708 89.8945 4.64 89.4305 4.64C88.9825 4.64 88.5705 4.764 88.1945 5.012C87.8185 5.252 87.4945 5.588 87.2225 6.02C86.9505 6.452 86.7385 6.964 86.5865 7.556C86.4425 8.14 86.3705 8.776 86.3705 9.464C86.3705 10.384 86.5025 11.204 86.7665 11.924C87.0305 12.636 87.4305 13.196 87.9665 13.604C88.5025 14.004 89.1825 14.204 90.0065 14.204C90.5185 14.204 90.9505 14.104 91.3025 13.904C91.6625 13.696 91.9345 13.424 92.1185 13.088C92.3105 12.744 92.4065 12.376 92.4065 11.984C92.4065 11.872 92.4025 11.772 92.3945 11.684C92.3945 11.596 92.3865 11.512 92.3705 11.432C92.2345 11.392 92.0225 11.352 91.7345 11.312C91.4465 11.264 91.1265 11.22 90.7745 11.18C90.4305 11.132 90.0985 11.096 89.7785 11.072C89.4585 11.04 89.1945 11.02 88.9865 11.012C88.9865 10.788 88.9905 10.504 88.9985 10.16C89.0065 9.808 89.0185 9.46 89.0345 9.116C89.0585 8.764 89.0825 8.48 89.1065 8.264C89.6745 8.272 90.3665 8.32 91.1825 8.408C91.9985 8.488 92.8185 8.592 93.6425 8.72C94.4745 8.848 95.1865 8.988 95.7785 9.14C95.8585 9.436 95.9145 9.772 95.9465 10.148C95.9785 10.516 95.9945 10.852 95.9945 11.156C95.9945 12.316 95.7745 13.384 95.3345 14.36C94.9025 15.328 94.2385 16.108 93.3425 16.7C92.4545 17.284 91.3305 17.576 89.9705 17.576ZM104.159 17.372C102.735 17.372 101.615 17.052 100.799 16.412C99.9912 15.772 99.3872 14.86 98.9872 13.676C98.6192 12.612 98.3872 11.32 98.2912 9.8C98.2032 8.272 98.1592 6.548 98.1592 4.628C98.1592 4.332 98.1632 4.024 98.1712 3.704C98.1792 3.384 98.1872 3.06 98.1952 2.732C98.2032 2.396 98.2112 2.072 98.2192 1.76C98.2352 1.448 98.2472 1.16 98.2552 0.896C98.5832 0.855999 98.9152 0.827999 99.2512 0.811999C99.5872 0.787999 99.9072 0.775999 100.211 0.775999C100.619 0.775999 101.023 0.787999 101.423 0.811999C101.823 0.835999 102.179 0.863999 102.491 0.896C102.443 1.496 102.399 2.148 102.359 2.852C102.319 3.556 102.287 4.276 102.263 5.012C102.247 5.74 102.239 6.448 102.239 7.136C102.239 7.936 102.263 8.648 102.311 9.272C102.359 9.888 102.435 10.416 102.539 10.856C102.691 11.512 102.919 11.996 103.223 12.308C103.527 12.62 103.919 12.776 104.399 12.776C104.927 12.776 105.339 12.596 105.635 12.236C105.939 11.876 106.151 11.368 106.271 10.712C106.391 10.056 106.451 9.292 106.451 8.42C106.451 8.1 106.443 7.688 106.427 7.184C106.419 6.672 106.407 6.12 106.391 5.528C106.375 4.928 106.355 4.336 106.331 3.752C106.307 3.168 106.279 2.64 106.247 2.168C106.215 1.688 106.183 1.316 106.151 1.052C106.471 1.052 106.839 1.068 107.255 1.1C107.679 1.124 108.095 1.152 108.503 1.184C108.919 1.216 109.279 1.252 109.583 1.292C109.887 1.332 110.083 1.364 110.171 1.388C110.243 1.812 110.299 2.276 110.339 2.78C110.379 3.276 110.411 3.792 110.435 4.328C110.459 4.864 110.471 5.4 110.471 5.936C110.471 7.528 110.387 9.016 110.219 10.4C110.059 11.784 109.755 13 109.307 14.048C108.859 15.088 108.219 15.904 107.387 16.496C106.555 17.08 105.479 17.372 104.159 17.372ZM117.106 17.072C116.618 17.08 116.102 17.068 115.558 17.036C115.022 17.012 114.526 16.98 114.07 16.94C113.614 16.9 113.262 16.864 113.014 16.832C113.014 16.752 113.014 16.532 113.014 16.172C113.014 15.812 113.014 15.352 113.014 14.792C113.014 14.232 113.014 13.612 113.014 12.932C113.014 12.244 113.014 11.532 113.014 10.796C113.022 10.06 113.026 9.34 113.026 8.636C113.026 7.764 113.022 6.9 113.014 6.044C113.006 5.18 112.994 4.38 112.978 3.644C112.962 2.9 112.938 2.284 112.906 1.796C113.066 1.796 113.31 1.804 113.638 1.82C113.966 1.836 114.326 1.856 114.718 1.88C115.118 1.904 115.506 1.936 115.882 1.976C116.258 2.008 116.578 2.044 116.842 2.084C117.362 2.836 117.862 3.604 118.342 4.388C118.83 5.164 119.29 5.948 119.722 6.74C120.162 7.524 120.574 8.308 120.958 9.092C121.35 9.876 121.714 10.648 122.05 11.408L121.558 2.012C121.798 2.012 122.09 2.024 122.434 2.048C122.786 2.072 123.146 2.1 123.514 2.132C123.89 2.164 124.234 2.204 124.546 2.252C124.866 2.3 125.106 2.348 125.266 2.396C125.29 2.74 125.314 3.136 125.338 3.584C125.37 4.024 125.394 4.5 125.41 5.012C125.426 5.516 125.442 6.04 125.458 6.584C125.474 7.12 125.486 7.66 125.494 8.204C125.502 8.74 125.506 9.256 125.506 9.752C125.506 10.56 125.494 11.36 125.47 12.152C125.454 12.936 125.426 13.668 125.386 14.348C125.354 15.02 125.318 15.588 125.278 16.052C125.238 16.508 125.194 16.812 125.146 16.964C124.922 16.972 124.682 16.98 124.426 16.988C124.178 16.988 123.926 16.988 123.67 16.988C123.294 16.988 122.926 16.98 122.566 16.964C122.214 16.948 121.918 16.92 121.678 16.88C121.598 16.736 121.462 16.492 121.27 16.148C121.086 15.796 120.858 15.372 120.586 14.876C120.314 14.372 120.018 13.824 119.698 13.232C119.378 12.64 119.05 12.036 118.714 11.42C118.378 10.796 118.046 10.188 117.718 9.596C117.39 9.004 117.09 8.46 116.818 7.964C116.842 8.188 116.866 8.528 116.89 8.984C116.914 9.44 116.934 9.968 116.95 10.568C116.974 11.168 116.994 11.792 117.01 12.44C117.026 13.08 117.042 13.708 117.058 14.324C117.074 14.932 117.086 15.48 117.094 15.968C117.102 16.448 117.106 16.816 117.106 17.072ZM128.965 17.384C128.917 17.008 128.861 16.468 128.797 15.764C128.741 15.052 128.673 14.24 128.593 13.328C128.513 12.408 128.433 11.448 128.353 10.448C128.273 9.44 128.193 8.444 128.113 7.46C128.033 6.476 127.961 5.568 127.897 4.736C127.841 3.896 127.789 3.184 127.741 2.6C127.701 2.008 127.673 1.612 127.657 1.412C127.985 1.372 128.405 1.328 128.917 1.28C129.429 1.232 129.977 1.192 130.561 1.16C131.145 1.12 131.693 1.1 132.205 1.1C133.677 1.1 134.925 1.264 135.949 1.592C136.973 1.912 137.797 2.412 138.421 3.092C139.045 3.764 139.497 4.62 139.777 5.66C140.057 6.7 140.197 7.928 140.197 9.344C140.197 10.984 139.977 12.328 139.537 13.376C139.105 14.416 138.429 15.228 137.509 15.812C136.597 16.388 135.433 16.788 134.017 17.012C132.609 17.244 130.925 17.368 128.965 17.384ZM132.553 13.412C133.505 13.38 134.253 13.216 134.797 12.92C135.349 12.624 135.737 12.2 135.961 11.648C136.193 11.088 136.309 10.408 136.309 9.608C136.309 8.712 136.197 7.868 135.973 7.076C135.757 6.284 135.393 5.644 134.881 5.156C134.377 4.668 133.689 4.424 132.817 4.424C132.673 4.424 132.517 4.424 132.349 4.424C132.189 4.424 132.045 4.432 131.917 4.448C131.981 5.32 132.045 6.284 132.109 7.34C132.181 8.388 132.257 9.44 132.337 10.496C132.417 11.544 132.489 12.516 132.553 13.412ZM151.132 17.156C150.348 17.108 149.572 17.06 148.804 17.012C148.036 16.972 147.256 16.94 146.464 16.916C145.824 16.884 145.172 16.852 144.508 16.82C143.844 16.78 143.188 16.744 142.54 16.712C142.484 15.368 142.444 14.064 142.42 12.8C142.404 11.528 142.396 10.336 142.396 9.224C142.396 7.44 142.412 5.924 142.444 4.676C142.476 3.428 142.508 2.532 142.54 1.988C144.052 1.708 145.452 1.504 146.74 1.376C148.028 1.24 149.104 1.156 149.968 1.124C150.84 1.092 151.384 1.076 151.6 1.076C151.6 1.596 151.584 2.108 151.552 2.612C151.52 3.108 151.48 3.632 151.432 4.184L146.296 4.604C146.288 4.708 146.28 4.872 146.272 5.096C146.264 5.312 146.256 5.552 146.248 5.816C146.248 6.072 146.248 6.312 146.248 6.536C146.248 6.76 146.248 6.924 146.248 7.028C146.432 7.028 146.668 7.028 146.956 7.028C147.252 7.02 147.572 7.012 147.916 7.004C148.268 6.996 148.62 6.988 148.972 6.98C149.324 6.972 149.652 6.968 149.956 6.968C150.268 6.96 150.532 6.952 150.748 6.944L150.7 10.232C150.596 10.232 150.392 10.228 150.088 10.22C149.784 10.204 149.432 10.188 149.032 10.172C148.64 10.156 148.244 10.144 147.844 10.136C147.444 10.12 147.092 10.108 146.788 10.1C146.484 10.092 146.276 10.092 146.164 10.1C146.156 10.18 146.148 10.316 146.14 10.508C146.14 10.692 146.136 10.904 146.128 11.144C146.128 11.376 146.128 11.62 146.128 11.876C146.128 12.124 146.124 12.356 146.116 12.572C146.116 12.78 146.116 12.948 146.116 13.076C146.22 13.076 146.5 13.076 146.956 13.076C147.412 13.068 147.88 13.064 148.36 13.064C148.76 13.064 149.16 13.072 149.56 13.088C149.96 13.104 150.332 13.124 150.676 13.148C151.02 13.164 151.3 13.18 151.516 13.196C151.516 13.516 151.5 13.884 151.468 14.3C151.436 14.708 151.4 15.112 151.36 15.512C151.328 15.912 151.288 16.264 151.24 16.568C151.2 16.864 151.164 17.06 151.132 17.156ZM159.532 17.192C158.932 17.192 158.32 17.12 157.696 16.976C157.08 16.832 156.48 16.62 155.896 16.34C155.32 16.06 154.792 15.716 154.312 15.308C153.832 14.892 153.428 14.416 153.1 13.88C153.148 13.8 153.276 13.664 153.484 13.472C153.692 13.272 153.932 13.056 154.204 12.824C154.476 12.584 154.744 12.364 155.008 12.164C155.28 11.964 155.504 11.82 155.68 11.732C155.936 12.028 156.208 12.324 156.496 12.62C156.792 12.916 157.104 13.184 157.432 13.424C157.768 13.656 158.128 13.844 158.512 13.988C158.896 14.132 159.304 14.204 159.736 14.204C160.232 14.204 160.624 14.112 160.912 13.928C161.208 13.744 161.42 13.512 161.548 13.232C161.676 12.944 161.74 12.652 161.74 12.356C161.74 12.116 161.68 11.888 161.56 11.672C161.44 11.456 161.26 11.252 161.02 11.06C160.78 10.86 160.48 10.668 160.12 10.484C159.768 10.292 159.352 10.112 158.872 9.944C157.912 9.576 157.044 9.188 156.268 8.78C155.492 8.364 154.872 7.864 154.408 7.28C153.952 6.696 153.724 5.964 153.724 5.084C153.724 4.148 153.984 3.364 154.504 2.732C155.024 2.1 155.712 1.624 156.568 1.304C157.424 0.975999 158.344 0.811999 159.328 0.811999C160.072 0.811999 160.792 0.895999 161.488 1.064C162.192 1.224 162.848 1.468 163.456 1.796C164.064 2.124 164.588 2.536 165.028 3.032C164.908 3.208 164.72 3.444 164.464 3.74C164.208 4.036 163.936 4.332 163.648 4.628C163.36 4.924 163.116 5.16 162.916 5.336C162.596 5.024 162.24 4.744 161.848 4.496C161.456 4.24 161.044 4.04 160.612 3.896C160.18 3.744 159.744 3.668 159.304 3.668C158.792 3.668 158.36 3.78 158.008 4.004C157.656 4.22 157.48 4.548 157.48 4.988C157.48 5.188 157.524 5.368 157.612 5.528C157.708 5.688 157.84 5.832 158.008 5.96C158.176 6.088 158.376 6.208 158.608 6.32C158.84 6.424 159.1 6.524 159.388 6.62C160.204 6.892 160.98 7.176 161.716 7.472C162.46 7.768 163.116 8.112 163.684 8.504C164.26 8.888 164.712 9.36 165.04 9.92C165.368 10.48 165.532 11.164 165.532 11.972C165.532 12.732 165.384 13.432 165.088 14.072C164.792 14.704 164.376 15.256 163.84 15.728C163.312 16.192 162.68 16.552 161.944 16.808C161.216 17.064 160.412 17.192 159.532 17.192Z" fill="#403C3C"/>
</svg>
