<svg width="258" height="24" viewBox="0 0 258 24" fill="none" xmlns="http://www.w3.org/2000/svg">
<path d="M14.008 23L6.45597 13.08L6.45597 23L0.98397 23L0.98397 0.535999L6.45597 0.535999L6.45597 10.392L13.944 0.535999L20.376 0.535999L11.672 11.544L20.696 23L14.008 23ZM37.2805 19.032L28.8965 19.032L27.5525 23L21.8245 23L29.9525 0.535999L36.2885 0.535999L44.4165 23L38.6245 23L37.2805 19.032ZM35.8725 14.808L33.0885 6.584L30.3365 14.808L35.8725 14.808ZM52.3622 0.535999L52.3622 23L46.8902 23L46.8902 0.535999L52.3622 0.535999ZM66.9517 23.224C64.8397 23.224 62.8984 22.7333 61.1277 21.752C59.3784 20.7707 57.9811 19.4053 56.9357 17.656C55.9117 15.8853 55.3997 13.9013 55.3997 11.704C55.3997 9.50667 55.9117 7.53333 56.9357 5.784C57.9811 4.03467 59.3784 2.66933 61.1277 1.688C62.8984 0.706666 64.8397 0.216 66.9517 0.216C69.0637 0.216 70.9944 0.706666 72.7437 1.688C74.5144 2.66933 75.9011 4.03467 76.9037 5.784C77.9277 7.53333 78.4397 9.50667 78.4397 11.704C78.4397 13.9013 77.9277 15.8853 76.9037 17.656C75.8797 19.4053 74.4931 20.7707 72.7437 21.752C70.9944 22.7333 69.0637 23.224 66.9517 23.224ZM66.9517 18.232C68.7437 18.232 70.1731 17.6347 71.2397 16.44C72.3277 15.2453 72.8717 13.6667 72.8717 11.704C72.8717 9.72 72.3277 8.14133 71.2397 6.968C70.1731 5.77333 68.7437 5.176 66.9517 5.176C65.1384 5.176 63.6877 5.76267 62.5997 6.936C61.5331 8.10933 60.9997 9.69867 60.9997 11.704C60.9997 13.688 61.5331 15.2773 62.5997 16.472C63.6877 17.6453 65.1384 18.232 66.9517 18.232ZM102.889 0.535999L102.889 4.92L93.7372 4.92L93.7372 9.656L100.585 9.656L100.585 13.912L93.7372 13.912L93.7372 23L88.2652 23L88.2652 0.535999L102.889 0.535999ZM119.749 19.032L111.365 19.032L110.021 23L104.293 23L112.421 0.535999L118.757 0.535999L126.885 23L121.093 23L119.749 19.032ZM118.341 14.808L115.557 6.584L112.805 14.808L118.341 14.808ZM144.271 7.64C143.866 6.89333 143.279 6.328 142.511 5.944C141.764 5.53867 140.879 5.336 139.855 5.336C138.084 5.336 136.666 5.92267 135.599 7.096C134.532 8.248 133.999 9.79467 133.999 11.736C133.999 13.8053 134.554 15.4267 135.663 16.6C136.794 17.752 138.34 18.328 140.303 18.328C141.647 18.328 142.778 17.9867 143.695 17.304C144.634 16.6213 145.316 15.64 145.743 14.36L138.799 14.36L138.799 10.328L150.703 10.328L150.703 15.416C150.298 16.7813 149.604 18.0507 148.623 19.224C147.663 20.3973 146.436 21.3467 144.943 22.072C143.45 22.7973 141.764 23.16 139.887 23.16C137.668 23.16 135.684 22.68 133.935 21.72C132.207 20.7387 130.852 19.384 129.871 17.656C128.911 15.928 128.431 13.9547 128.431 11.736C128.431 9.51733 128.911 7.544 129.871 5.816C130.852 4.06667 132.207 2.712 133.935 1.752C135.663 0.770665 137.636 0.279999 139.855 0.279999C142.543 0.279999 144.804 0.930665 146.639 2.232C148.495 3.53333 149.722 5.336 150.319 7.64L144.271 7.64ZM159.11 0.535999L159.11 13.976C159.11 15.32 159.441 16.3547 160.102 17.08C160.763 17.8053 161.734 18.168 163.014 18.168C164.294 18.168 165.275 17.8053 165.958 17.08C166.641 16.3547 166.982 15.32 166.982 13.976L166.982 0.535999L172.454 0.535999L172.454 13.944C172.454 15.9493 172.027 17.6453 171.174 19.032C170.321 20.4187 169.169 21.464 167.718 22.168C166.289 22.872 164.689 23.224 162.918 23.224C161.147 23.224 159.558 22.8827 158.15 22.2C156.763 21.496 155.665 20.4507 154.854 19.064C154.043 17.656 153.638 15.9493 153.638 13.944L153.638 0.535999L159.11 0.535999ZM196.392 23L190.92 23L181.768 9.144L181.768 23L176.296 23L176.296 0.535999L181.768 0.535999L190.92 14.456L190.92 0.535999L196.392 0.535999L196.392 23ZM208.775 0.535999C211.143 0.535999 213.212 1.00533 214.983 1.944C216.754 2.88267 218.119 4.20533 219.079 5.912C220.06 7.59733 220.551 9.54933 220.551 11.768C220.551 13.9653 220.06 15.9173 219.079 17.624C218.119 19.3307 216.743 20.6533 214.951 21.592C213.18 22.5307 211.122 23 208.775 23L200.359 23L200.359 0.535999L208.775 0.535999ZM208.423 18.264C210.492 18.264 212.103 17.6987 213.255 16.568C214.407 15.4373 214.983 13.8373 214.983 11.768C214.983 9.69867 214.407 8.088 213.255 6.936C212.103 5.784 210.492 5.208 208.423 5.208L205.831 5.208L205.831 18.264L208.423 18.264ZM229.081 4.92L229.081 9.464L236.409 9.464L236.409 13.688L229.081 13.688L229.081 18.616L237.369 18.616L237.369 23L223.609 23L223.609 0.535999L237.369 0.535999L237.369 4.92L229.081 4.92ZM249.049 23.224C247.407 23.224 245.935 22.9573 244.633 22.424C243.332 21.8907 242.287 21.1013 241.497 20.056C240.729 19.0107 240.324 17.752 240.281 16.28L246.105 16.28C246.191 17.112 246.479 17.752 246.969 18.2C247.46 18.6267 248.1 18.84 248.889 18.84C249.7 18.84 250.34 18.6587 250.809 18.296C251.279 17.912 251.513 17.3893 251.513 16.728C251.513 16.1733 251.321 15.7147 250.937 15.352C250.575 14.9893 250.116 14.6907 249.561 14.456C249.028 14.2213 248.26 13.9547 247.257 13.656C245.807 13.208 244.623 12.76 243.705 12.312C242.788 11.864 241.999 11.2027 241.337 10.328C240.676 9.45333 240.345 8.312 240.345 6.904C240.345 4.81333 241.103 3.18133 242.617 2.008C244.132 0.813333 246.105 0.215999 248.537 0.215999C251.012 0.215999 253.007 0.813333 254.521 2.008C256.036 3.18133 256.847 4.824 256.953 6.936L251.033 6.936C250.991 6.21067 250.724 5.64533 250.233 5.24C249.743 4.81333 249.113 4.6 248.345 4.6C247.684 4.6 247.151 4.78133 246.745 5.144C246.34 5.48533 246.137 5.98666 246.137 6.648C246.137 7.37333 246.479 7.93867 247.161 8.344C247.844 8.74933 248.911 9.18667 250.361 9.656C251.812 10.1467 252.985 10.616 253.881 11.064C254.799 11.512 255.588 12.1627 256.249 13.016C256.911 13.8693 257.241 14.968 257.241 16.312C257.241 17.592 256.911 18.7547 256.249 19.8C255.609 20.8453 254.671 21.6773 253.433 22.296C252.196 22.9147 250.735 23.224 249.049 23.224Z" fill="#403C3C"/>
</svg>
