<svg width="20" height="21" viewBox="0 0 20 21" fill="none" xmlns="http://www.w3.org/2000/svg">
<path d="M10.725 13.1862L8.60833 10.99L8.63333 10.9637C10.0833 9.26625 11.1167 7.315 11.725 5.25H14.1667V3.5H8.33333V1.75H6.66667V3.5H0.833334V5.24125H10.1417C9.58333 6.93 8.7 8.53125 7.5 9.93125C6.725 9.03 6.08333 8.04125 5.575 7H3.90833C4.51667 8.42625 5.35 9.77375 6.39167 10.99L2.15 15.3825L3.33333 16.625L7.5 12.25L10.0917 14.9713L10.725 13.1862ZM15.4167 8.75H13.75L10 19.25H11.6667L12.6 16.625H16.5583L17.5 19.25H19.1667L15.4167 8.75ZM13.2333 14.875L14.5833 11.0863L15.9333 14.875H13.2333Z" fill="#9400A0"/>
</svg>
