<svg width="21" height="23" viewBox="0 0 21 23" fill="none" xmlns="http://www.w3.org/2000/svg">
<path d="M16.0781 23H4.92188C2.20795 23 0 20.5818 0 17.6094V12.2217C0 11.5232 0.251918 10.8768 0.709365 10.4014C1.16927 9.92356 1.79329 9.67065 2.42205 9.70649C2.87007 9.73232 3.30102 9.90419 3.66827 10.2036L8.50459 14.1731C8.50644 14.1746 8.50828 14.1761 8.51013 14.1777C9.68178 15.1564 11.3183 15.1564 12.4899 14.1777C12.4918 14.1762 12.4936 14.1746 12.4955 14.1731L17.3296 10.2053C17.699 9.9042 18.13 9.73232 18.578 9.70649C19.2059 9.67042 19.8307 9.92351 20.2907 10.4014C20.7481 10.8768 21 11.5232 21 12.2217V17.6094C21 20.5818 18.792 23 16.0781 23ZM2.30364 11.5C2.13523 11.5 1.96346 11.5752 1.83853 11.7051C1.74825 11.7989 1.64062 11.9646 1.64062 12.2217V17.6094C1.64062 19.591 3.11259 21.2031 4.92188 21.2031H16.0781C17.8874 21.2031 19.3594 19.591 19.3594 17.6094V12.2217C19.3594 11.9646 19.2517 11.7989 19.1615 11.7051C19.0286 11.5669 18.8436 11.4908 18.6642 11.5009C18.5385 11.5082 18.4197 11.5566 18.3113 11.6451L13.482 15.6088C11.7258 17.0738 9.27433 17.0738 7.51804 15.6088L2.68652 11.6433C2.58025 11.5567 2.45044 11.5 2.30364 11.5ZM12.5508 9.70312C12.5508 9.20692 12.1835 8.80469 11.7305 8.80469H7.30078C6.84772 8.80469 6.48047 9.20692 6.48047 9.70312C6.48047 10.1993 6.84772 10.6016 7.30078 10.6016H11.7305C12.1835 10.6016 12.5508 10.1993 12.5508 9.70312ZM14.6016 6.24414C14.6016 5.74793 14.2343 5.3457 13.7812 5.3457H7.30078C6.84772 5.3457 6.48047 5.74793 6.48047 6.24414C6.48047 6.74035 6.84772 7.14258 7.30078 7.14258H13.7812C14.2343 7.14258 14.6016 6.74035 14.6016 6.24414ZM19.0312 7.05273V5.39062C19.0312 2.41823 16.8233 0 14.1094 0H6.97266C4.25873 0 2.05078 2.41823 2.05078 5.39062V7.05273C2.05078 7.54894 2.41804 7.95117 2.87109 7.95117C3.32415 7.95117 3.69141 7.54894 3.69141 7.05273V5.39062C3.69141 3.40903 5.16337 1.79688 6.97266 1.79688H14.1094C15.9187 1.79688 17.3906 3.40903 17.3906 5.39062V7.05273C17.3906 7.54894 17.7579 7.95117 18.2109 7.95117C18.664 7.95117 19.0312 7.54894 19.0312 7.05273Z" fill="#AB3CB4"/>
</svg>
